<svg viewBox="0 0 100 100" xmlns="http://www.w3.org/2000/svg"><g fill="none" stroke="#EF4444" stroke-width="2.5" stroke-linecap="round" stroke-linejoin="round">
<ellipse cx="50" cy="50" rx="20" ry="18"/>
<path d="M30 34 Q20 16 38 20"/>
<path d="M66 34 Q76 28 72 40"/>
<circle cx="42" cy="46" r="4"/>
<circle cx="58" cy="46" r="4"/>
<path d="M44 52 Q42 56 40 56"/>
<path d="M36 52 L26 50 M36 54 L26 54"/>
<path d="M54 52 L64 50 M54 54 L64 54"/>
<path d="M50 64 Q52 74 62 72 Q68 70 66 66"/>
<path d="M44 58 Q50 62 56 58"/>
</g></svg>